<!DOCTYPE svg PUBLIC "-//W3C//DTD SVG 1.1//EN" "http://www.w3.org/Graphics/SVG/1.1/DTD/svg11.dtd">
<!-- Uploaded to: SVG Repo, www.svgrepo.com, Transformed by: SVG Repo Mixer Tools -->
<svg height="800px" width="800px" version="1.1" id="_x32_" xmlns="http://www.w3.org/2000/svg" xmlns:xlink="http://www.w3.org/1999/xlink" viewBox="0 0 512 512" xml:space="preserve" fill="#f7bb18" stroke="#f7bb18">
<g id="SVGRepo_bgCarrier" stroke-width="0"/>
<g id="SVGRepo_tracerCarrier" stroke-linecap="round" stroke-linejoin="round"/>
<g id="SVGRepo_iconCarrier"> <style type="text/css"> .st0{fill:#e0b20b;} </style> <g> <path class="st0" d="M461.04,280.543c-0.016-108.556-84.38-197.136-191.12-204.324V47.096h-27.848v29.124 C135.349,83.416,50.981,172.002,50.965,280.543c0.016,65.74,31.039,124.076,79.137,161.606l-27.388,46.502L137.487,512 l34.033-44.783c25.776,11.696,54.332,18.374,84.484,18.374c29.362,0,57.227-6.284,82.477-17.403L371.757,512l34.823-23.349 l-26.598-45.071C429.161,406.117,461.024,347.138,461.04,280.543z M261.663,419.506h-10.298h-4.836v17.856 c-37.15-2.212-70.621-17.206-96.446-40.786l13.148-13.143l-7.288-7.286l-13.278,13.282c-24.23-25.242-40.07-58.312-43.254-95.2 h19.735v-21.055H99.091c1.768-37.989,16.865-72.245,40.884-98.548l15.253,15.257l7.287-7.288l-15.392-15.388 c25.718-24.682,59.575-40.605,97.301-43.352v21.935h5.921h10.298h4.836v-22.042c38.203,2.278,72.553,18.036,98.658,42.768 l-15.368,15.364l7.288,7.287l15.298-15.298c23.962,25.916,39.215,59.686,41.456,97.198h-19.948v21.055h19.842 c-2.726,37.373-18.39,70.929-42.669,96.557l-13.254-13.258l-7.286,7.279l13.192,13.192c-25.438,23.53-58.428,38.688-95.101,41.362 v-17.749H261.663z"/> <path class="st0" d="M81.396,11.401c-40.4,23.39-54.184,75.099-30.776,115.506l146.283-84.722 C173.527,1.786,121.811-12.007,81.396,11.401z"/> <path class="st0" d="M430.593,11.401c-40.395-23.408-92.112-9.615-115.503,30.784l146.295,84.722 C484.793,86.5,470.991,34.791,430.593,11.401z"/> <polygon class="st0" points="283.943,190.245 251.719,269.859 199.501,250.803 192.214,270.78 259.499,295.323 259.717,294.731 260.791,295.166 300.541,196.964 "/> </g> </g>
</svg>